<svg width="443" height="78" viewBox="0 0 443 78" fill="none" xmlns="http://www.w3.org/2000/svg">
<g clip-path="url(#clip0_2185_16570)">
<path d="M45.9463 41.8241V58.9756H1.12956V57.635C4.52328 57.635 6.72674 54.1554 6.72674 48.7833V11.7005C6.73657 6.88032 3.89372 4.66245 0.5 4.66245V3.32188H25.5053V4.66245C22.1116 4.66245 18.167 6.00303 18.167 11.7005V57.635H21.0099C21.0099 57.635 41.9132 57.635 44.5987 41.8241H45.9365H45.9463Z" fill="#921A64"/>
<path d="M65.3451 57.635V58.9756H49.1733V57.635C52.1735 56.6887 52.3309 53.3669 52.3309 49.3353V31.7895C52.3309 29.0984 51.5439 27.9944 48.3076 26.2596V24.919L62.1186 21.7548V49.3451C62.1186 53.771 62.5121 56.8563 65.3549 57.6449L65.3451 57.635ZM56.4329 15.4167C53.4326 15.4167 51.0718 13.0411 51.0718 10.0445C51.0718 7.0479 53.4425 4.67231 56.4329 4.67231C59.4233 4.67231 61.8727 7.0479 61.8727 10.0445C61.8727 13.0411 59.4233 15.4167 56.4329 15.4167Z" fill="#921A64"/>
<path d="M107.397 41.1834C107.397 53.909 99.0357 59.6853 87.9889 59.6853C83.2573 59.6853 79.0767 58.2659 76.4699 55.6537C73.6271 58.1082 68.7381 59.843 68.7381 58.5813V9.32491C68.7381 6.63389 67.9512 5.45103 64.7148 4.26817V2.92759L78.5258 0V28.4577C81.0539 23.7164 86.8871 21.7351 90.6743 21.7351C99.5079 21.7351 107.397 28.6943 107.397 41.1834ZM96.1141 41.8142C96.1141 29.1674 93.1926 25.057 86.7298 25.057C81.3687 25.057 78.5258 29.4829 78.5258 35.1015V45.146C78.5258 55.1116 83.4147 58.3447 87.9102 58.3447C93.6648 58.3447 96.1141 53.9189 96.1141 41.8241V41.8142Z" fill="#921A64"/>
<path d="M143.754 40.0005H118.67C119.3 47.7483 123.245 51.7799 128.527 52.9627C132.786 53.909 139.102 52.3319 141.069 48.6157L142.407 49.3254C141.148 53.4359 136.495 59.6853 125.92 59.6853C115.346 59.6853 108.489 50.1238 108.489 40.8679C108.489 29.7194 116.064 21.7351 126.953 21.7351C138.393 21.7351 143.754 27.6692 143.754 40.0005ZM134.134 38.6599C134.134 28.6943 130.898 23.0856 126.56 23.0856C121.907 23.0856 118.67 31.0699 118.67 38.6599H134.134Z" fill="#921A64"/>
<path d="M174.524 23.1644C176.973 25.3034 177.209 29.0984 175.075 31.4642C172.94 33.9186 169.32 34.234 166.792 32.095C165.612 30.991 164.982 29.6406 164.982 28.2212C164.982 27.3537 161.746 28.1423 158.824 32.8836V49.3254C158.824 53.7513 159.218 56.8366 162.06 57.6252V58.9658H145.731V57.6252C148.81 56.6789 148.889 53.4359 148.889 49.3254V31.7796C148.889 29.0886 148.181 27.9057 144.944 26.2497V24.9091L158.834 21.745V30.6756C163.015 24.1107 166.251 22.9278 168.14 22.1393C169.792 21.4295 172.793 21.745 174.534 23.1644H174.524Z" fill="#921A64"/>
<path d="M201.733 51.3067L202.913 52.0164C201.34 55.7326 196.519 59.6853 191.237 59.6853C185 59.6853 181.292 57.152 181.292 47.5905V23.7953H177.347L177.111 22.4547H181.292V11.8582L191.158 10.2022V22.4547H200.543L200.228 23.7953H191.158V47.354C191.158 51.7799 193.047 54.0766 196.992 54.0766C199.284 54.0766 201.015 52.4994 201.723 51.3067H201.733Z" fill="#921A64"/>
<path d="M240.47 22.4547V23.7953C238.817 23.7953 235.188 23.953 230.132 36.1266L218.062 67.9851C216.016 73.3573 213.645 75.5751 212.14 76.758C210.723 77.9409 207.959 78.414 206.061 77.5466C203.297 76.2848 202.116 73.0418 203.297 70.272C204.556 67.5021 207.792 66.2404 210.556 67.5021C211.973 68.1329 212.848 69.4045 213.242 70.7451C213.556 71.6914 215.455 71.1394 216.714 67.8175L219.714 59.6755C214.825 48.3693 204.802 26.8707 204.802 26.8707C203.542 23.7854 201.014 23.7854 199.834 23.7854V22.4448H218.455V23.7854C214.353 23.7854 216.409 28.6056 216.409 28.6056L224.77 46.4668L228.951 35.7915C228.951 35.7915 234.155 23.6967 225.007 23.7756V22.435H240.47V22.4547Z" fill="#921A64"/>
<path d="M260.026 57.635V58.9756H236.122V57.635C247.956 57.635 247.956 38.9754 247.956 38.9754H249.294C249.294 38.9754 249.136 57.635 260.026 57.635ZM258.924 3.32188L278.647 44.9094L272.725 59.6952H271.387L247.956 10.1233C244.956 4.83003 241.011 4.83003 239.044 4.67231V3.33173H258.924V3.32188ZM311.856 57.635V58.9756H288.031V57.635C291.346 57.635 293.707 54.7863 293.707 49.4141V3.32188H311.138V4.66245C307.744 4.66245 305.059 6.80147 305.059 11.6216V49.4043C305.059 54.7764 308.453 57.6252 311.846 57.6252L311.856 57.635Z" fill="#921A64"/>
<path d="M348.223 40.0005H323.139C323.769 47.7483 327.713 51.7799 332.996 52.9627C337.255 53.909 343.57 52.3319 345.538 48.6157L346.875 49.3254C345.616 53.4359 340.964 59.6853 330.389 59.6853C319.814 59.6853 312.958 50.1238 312.958 40.8679C312.958 29.7194 320.532 21.7351 331.422 21.7351C342.862 21.7351 348.223 27.6692 348.223 40.0005ZM338.603 38.6599C338.603 28.6943 335.366 23.0856 331.028 23.0856C326.375 23.0856 323.139 31.0699 323.139 38.6599H338.603Z" fill="#921A64"/>
<path d="M386.41 40.0005H361.326C361.955 47.7483 365.9 51.7799 371.182 52.9627C375.442 53.909 381.757 52.3319 383.724 48.6157L385.062 49.3254C383.803 53.4359 379.15 59.6853 368.575 59.6853C358.001 59.6853 351.145 50.1238 351.145 40.8679C351.145 29.7194 358.719 21.7351 369.608 21.7351C381.049 21.7351 386.41 27.6692 386.41 40.0005ZM376.789 38.6599C376.789 28.6943 373.553 23.0856 369.215 23.0856C364.562 23.0856 361.326 31.0699 361.326 38.6599H376.789Z" fill="#921A64"/>
<path d="M412.438 51.3067L413.619 52.0164C412.045 55.7326 407.225 59.6853 401.942 59.6853C395.706 59.6853 391.997 57.152 391.997 47.5905V23.7953H388.053L387.816 22.4547H391.997V11.8582L401.854 10.2022V22.4547H411.238L410.923 23.7953H401.854V47.354C401.854 51.7799 403.742 54.0766 407.697 54.0766C409.989 54.0766 411.72 52.4994 412.428 51.3067H412.438Z" fill="#921A64"/>
<path d="M440.601 55.4172C440.601 55.4172 437.601 59.6853 429.555 59.6853C420.013 59.6853 415.271 56.048 415.271 56.048V46.0923H416.609C417.79 49.1776 420.318 58.3447 429.545 58.3447C435.142 58.3447 436.096 51.2279 430.096 47.2751L422.128 42.4549C414.475 37.7925 412.429 31.3853 416.767 25.6977C416.767 25.6977 419.767 21.745 427.656 21.745C436.726 21.745 440.67 24.1206 440.67 24.1206V32.9723H439.332C438.309 30.2025 435.781 23.0856 427.656 23.0856C422.531 23.0856 420.318 29.1773 427.184 33.5243L435.152 38.5022C442.175 42.8492 444.536 49.7296 440.592 55.4172H440.601Z" fill="#921A64"/>
</g>
<defs>
<clipPath id="clip0_2185_16570">
<rect width="442" height="78" fill="white" transform="translate(0.5)"/>
</clipPath>
</defs>
</svg>
